<?xml version="1.0" encoding="UTF-8" standalone="no"?>
<!-- Created with Inkscape (http://www.inkscape.org/) -->

<svg
   xmlns:dc="http://purl.org/dc/elements/1.1/"
   xmlns:cc="http://creativecommons.org/ns#"
   xmlns:rdf="http://www.w3.org/1999/02/22-rdf-syntax-ns#"
   xmlns:svg="http://www.w3.org/2000/svg"
   xmlns="http://www.w3.org/2000/svg"
   xmlns:sodipodi="http://sodipodi.sourceforge.net/DTD/sodipodi-0.dtd"
   xmlns:inkscape="http://www.inkscape.org/namespaces/inkscape"
   width="1920"
   height="800"
   viewBox="0 0 507.99999 211.66667"
   version="1.1"
   id="svg8"
   inkscape:version="0.92.4 (5da689c313, 2019-01-14)"
   sodipodi:docname="spacer1.svg">
  <defs
     id="defs2" />
  <sodipodi:namedview
     id="base"
     pagecolor="#ffffff"
     bordercolor="#666666"
     borderopacity="1.0"
     inkscape:pageopacity="0.0"
     inkscape:pageshadow="2"
     inkscape:zoom="0.40332314"
     inkscape:cx="460.65587"
     inkscape:cy="184.86326"
     inkscape:document-units="mm"
     inkscape:current-layer="layer1"
     showgrid="false"
     units="px"
     inkscape:window-width="1920"
     inkscape:window-height="1027"
     inkscape:window-x="1912"
     inkscape:window-y="-8"
     inkscape:window-maximized="1" />
  <metadata
     id="metadata5">
    <rdf:RDF>
      <cc:Work
         rdf:about="">
        <dc:format>image/svg+xml</dc:format>
        <dc:type
           rdf:resource="http://purl.org/dc/dcmitype/StillImage" />
        <dc:title />
      </cc:Work>
    </rdf:RDF>
  </metadata>
  <g
     inkscape:label="Capa 1"
     inkscape:groupmode="layer"
     id="layer1"
     transform="translate(0,-85.333317)">
    <rect
       style="fill:#86bcd4;fill-opacity:1;stroke:none;stroke-width:0.55756205;stroke-miterlimit:4;stroke-dasharray:none;stroke-opacity:1"
       id="rect907"
       width="507.63138"
       height="211.33252"
       x="0.22769082"
       y="85.784286"
       sodipodi:insensitive="true" />
    <g
       id="g862"
       transform="matrix(0.25554207,0.07300731,0.07300731,-0.25554207,410.18272,166.60429)">
      <path
         sodipodi:nodetypes="ccccc"
         inkscape:connector-curvature="0"
         id="path830"
         d="m -344.56414,-89.455881 90.74346,175.418587 15.63239,-16.04377 -98.29798,-167.527771 z"
         style="fill:#e62345;fill-opacity:1;stroke:none;stroke-width:0.26458332px;stroke-linecap:butt;stroke-linejoin:miter;stroke-opacity:1" />
      <path
         inkscape:connector-curvature="0"
         id="path850"
         d="m -438.08086,-46.971249 8.39586,-4.948196 -62.96819,-107.017445 -7.40065,3.80341 z"
         style="fill:#e62345;fill-opacity:1;stroke:none;stroke-width:0.26458332px;stroke-linecap:butt;stroke-linejoin:miter;stroke-opacity:1" />
      <path
         sodipodi:nodetypes="ccccc"
         inkscape:connector-curvature="0"
         id="path826"
         d="m -442.48743,-54.368625 104.81437,-45.560673 5.38142,9.239279 -105.72435,46.485798 z"
         style="fill:#ff4e58;fill-opacity:1;stroke:none;stroke-width:0.26458332px;stroke-linecap:butt;stroke-linejoin:miter;stroke-opacity:1" />
      <path
         sodipodi:nodetypes="ccccc"
         inkscape:connector-curvature="0"
         id="path836"
         d="M -150.97599,-40.330564 -1.6455149,108.99992 -43.194766,144.78986 -165.15875,-24.02191 Z"
         style="fill:#e62345;fill-opacity:1;stroke:none;stroke-width:0.26458332px;stroke-linecap:butt;stroke-linejoin:miter;stroke-opacity:1" />
      <path
         sodipodi:nodetypes="ccccc"
         inkscape:connector-curvature="0"
         id="path832"
         d="M -150.97599,-40.330564 -132.87533,-22.2299 -245.5931,102.00648 -256.27708,81.156501 Z"
         style="fill:#ff4e58;fill-opacity:1;stroke:none;stroke-width:0.26458332px;stroke-linecap:butt;stroke-linejoin:miter;stroke-opacity:1" />
      <path
         sodipodi:nodetypes="cccc"
         inkscape:connector-curvature="0"
         id="path838"
         d="m -335.51589,-71.960326 -7.27023,-14.105706 8.20171,-3.589392 z"
         style="fill:#b5142d;fill-opacity:1;stroke:none;stroke-width:0.26458332px;stroke-linecap:butt;stroke-linejoin:miter;stroke-opacity:1" />
      <path
         sodipodi:nodetypes="cccc"
         inkscape:connector-curvature="0"
         id="path840"
         d="m -251.93625,46.596376 -4.34083,34.560125 14.74836,-16.999511 z"
         style="fill:#be0c24;fill-opacity:1;stroke:none;stroke-width:0.26458332px;stroke-linecap:butt;stroke-linejoin:miter;stroke-opacity:1" />
      <path
         sodipodi:nodetypes="cccc"
         inkscape:connector-curvature="0"
         id="path844"
         d="m -132.87533,-22.2299 -4.68003,36.409146 -12.57712,-17.3540903 z"
         style="fill:#be0c24;fill-opacity:1;stroke:none;stroke-width:0.26458332px;stroke-linecap:butt;stroke-linejoin:miter;stroke-opacity:1" />
      <path
         inkscape:connector-curvature="0"
         id="path846"
         d="M -75.130966,162.27688 22.907736,73.849816 20.504826,168.04386 Z"
         style="fill:#e62345;fill-opacity:1;stroke:none;stroke-width:0.26458332px;stroke-linecap:butt;stroke-linejoin:miter;stroke-opacity:1" />
      <path
         sodipodi:nodetypes="cccc"
         inkscape:connector-curvature="0"
         id="path848"
         d="M -18.56258,92.134775 -8.3838552,102.26158 -48.162246,137.94177 Z"
         style="fill:#be0c24;fill-opacity:1;stroke:none;stroke-width:0.26458332px;stroke-linecap:butt;stroke-linejoin:miter;stroke-opacity:1" />
    </g>
    <g
       id="g905"
       inkscape:label="hombre"
       transform="matrix(0.28513889,-0.19317116,0.19317116,0.28513889,399.57911,53.554308)">
      <path
         sodipodi:nodetypes="ccccccccc"
         inkscape:connector-curvature="0"
         id="path874"
         d="m -525.78276,-6.4466677 c 1.51559,-2.12779 2.89429,-4.2807903 2.131,-6.8283703 0.6317,-1.01047 1.79624,0.32358 2.70383,0.52702 0.44482,-0.0412 0.89105,-0.0785 1.16864,-0.57285 2.37525,0.29681 3.34654,-0.0778 4.35364,-0.43536 1.82265,2.55858 1.3515,5.0415203 1.42068,6.3013403 -1.10516,2.42362 -2.32696,3.21433 -3.55168,3.96412 -2.09872,-0.1109 -3.55474,1.14395 -5.20148,1.99352 z"
         style="fill:#ffffff;stroke:none;stroke-width:0.26458332px;stroke-linecap:butt;stroke-linejoin:miter;stroke-opacity:1" />
      <path
         sodipodi:nodetypes="ccccccc"
         inkscape:connector-curvature="0"
         id="path866"
         d="m -526.77738,-8.7528377 6.49082,8.16588999 C -536.08785,15.717632 -542.47365,12.956362 -547.08738,12.080632 c -4.29329,-4.9203897 -4.13478,-10.2117597 -5.33924,-15.3895497 l 9.5157,-14.3047003 c 2.24705,0.10344 2.33813,11.2263203 1.68623,18.59702029 z"
         style="fill:#004f91;fill-opacity:1;stroke:none;stroke-width:0.26458332px;stroke-linecap:butt;stroke-linejoin:miter;stroke-opacity:1" />
      <path
         sodipodi:nodetypes="ccccccccccc"
         inkscape:connector-curvature="0"
         id="path872"
         d="m -595.43996,28.336482 c -8.24949,10.07785 -15.09657,21.60664 -19.64134,29.4065 -13.03058,-0.50923 -28.70369,1.18365 -43.05554,1.77548 -1.1298,-1.22864 -2.73421,-1.19168 -4.43873,-0.88774 l 0.11099,5.10452 1.3316,1.44259 c -0.32458,4.61968 0.62028,9.41687 1.66452,8.76646 1.74702,-1.93647 1.13904,-7.57366 1.66452,-11.42969 16.54053,2.75941 40.07885,9.10744 49.49168,8.21162 3.36101,-0.46653 20.66285,-14.41465 34.40007,-29.29553 z"
         style="fill:#012957;fill-opacity:1;stroke:none;stroke-width:0.26458332px;stroke-linecap:butt;stroke-linejoin:miter;stroke-opacity:1" />
      <path
         sodipodi:nodetypes="ccccccccc"
         inkscape:connector-curvature="0"
         id="path880"
         d="m -619.01267,-13.075018 c 1.35244,-3.34256 3.28231,-5.03533 6.29103,-3.64568 l 9.49211,5.49075 c 3.25072,3.1548703 0.4372,5.3959503 -0.24453,7.9582603 l -2.1563,-0.93365 c 1.2352,-1.1099 2.68331,-1.87004 3.13441,-4.26812 -0.22991,-2.0070503 -10.98867,-8.9416003 -12.8488,-7.7137203 -1.57585,1.04802 -1.95389,2.55674 -2.84541,3.86797 z"
         style="fill:#004e92;fill-opacity:1;stroke:none;stroke-width:0.26458332px;stroke-linecap:butt;stroke-linejoin:miter;stroke-opacity:1" />
      <path
         sodipodi:nodetypes="cccc"
         inkscape:connector-curvature="0"
         id="path868"
         d="m -551.90804,-1.5564377 1.38631,7.07369 c 4.16966,-6.04876001 5.77717,-12.53927 7.25141,-19.0527503 -2.7876,4.1213203 -5.409,8.4753203 -8.63772,11.9790603 z"
         style="fill:#002859;fill-opacity:1;stroke:none;stroke-width:0.26458332px;stroke-linecap:butt;stroke-linejoin:miter;stroke-opacity:1" />
      <path
         sodipodi:nodetypes="ccccscccc"
         inkscape:connector-curvature="0"
         id="path870"
         d="m -540.35657,104.76652 3.44104,0.28929 c 10.1199,1.22335 12.29757,3.17249 11.95229,3.48674 -2.31045,1.53481 -9.70368,0.32846 -9.79022,0.19793 0.0123,-0.11041 -0.70536,0.90238 -0.95922,1.05058 -0.0958,0.0559 -3.51719,-0.0455 -3.51719,-0.0455 -1.89707,-1.14238 -1.51031,-0.60113 -2.02501,-0.76129 -0.42598,-0.85808 -0.20411,-1.50056 0,-1.7662 0.38096,-0.83349 0.71878,-1.65835 0.89831,-2.45155 z"
         style="fill:#002859;fill-opacity:1;stroke:none;stroke-width:0.26458332px;stroke-linecap:butt;stroke-linejoin:miter;stroke-opacity:1" />
      <path
         inkscape:connector-curvature="0"
         id="path878"
         d="M -628.27295,-19.527998 -594.68061,0.31789229 -607.33462,21.893462 -641.10905,1.9565423 Z"
         style="fill:#004f91;fill-opacity:1;stroke:none;stroke-width:0.26458332px;stroke-linecap:butt;stroke-linejoin:miter;stroke-opacity:1" />
      <path
         sodipodi:nodetypes="ccccccc"
         inkscape:connector-curvature="0"
         id="path876"
         d="m -609.17811,-20.005938 c -6.88123,6.01921 -5.24355,6.44747 -5.62149,9.26293 0.93836,0.60511 1.78802,2.2354403 6.25874,2.3214203 0.95775,-0.85748 1.54299,-1.7587903 3.45938,-2.5034903 1.29338,-0.44215 3.40362,-0.16079 2.73108,-2.34418 -1.41876,-2.54803 -2.9177,-4.37442 -4.39251,-6.41805 z"
         style="fill:#ffffff;stroke:none;stroke-width:0.26458332px;stroke-linecap:butt;stroke-linejoin:miter;stroke-opacity:1" />
      <path
         inkscape:connector-curvature="0"
         id="path882"
         d="m -617.90118,4.5309623 -10.37177,-24.0589603 11.52771,22.3250403 21.07382,-1.37825 z"
         style="fill:#002857;fill-opacity:1;stroke:none;stroke-width:0.26458332px;stroke-linecap:butt;stroke-linejoin:miter;stroke-opacity:1" />
      <path
         sodipodi:nodetypes="ccccccccccccccccccccc"
         inkscape:connector-curvature="0"
         id="path864"
         d="m -612.01696,-19.632458 8.93102,2.17136 c 4.61791,-6.72132 11.47342,-11.61591 17.42384,-13.42494 l 11.13983,7.14092 c -7.57695,13.08412 -15.18094,27.2927903 -20.35647,41.9408 -5.50855,13.70381 2.1806,18.53635 11.2161,23.18442 l 34.56207,17.13821 8.56909,45.987538 3.42765,0.28565 c 1.15507,-18.471188 1.92485,-36.942378 1.14255,-55.413568 -5.34854,-9.2469 -28.26502,-27.06945 -34.27643,-30.84879 8.62034,-8.40208 20.83364,-20.6035297 29.42061,-36.56152 -0.44372,-2.5916 -1.94424,-3.77414 -3.17046,-5.32241 -3.51872,8.46543 -8.05203,16.7993303 -17.84261,24.7172903 3.15583,-3.78737 9.66284,-12.8431303 11.58705,-27.9639903 0.002,-0.76107 -2.97287,-2.71254 -7.14092,-5.14146 l 0.98097,-2.02789 c -2.99492,-1.03308 -4.52736,-0.65761 -6.40808,-0.0194 l -4.85584,-3.95109 c -8.10132,-2.97642 -19.41623,-4.6357 -25.84043,-2.66637 -6.73922,5.41533 -13.154,12.75652 -18.50954,20.77523 z"
         style="fill:#004f91;fill-opacity:1;stroke:none;stroke-width:0.26458332px;stroke-linecap:butt;stroke-linejoin:miter;stroke-opacity:1" />
      <path
         sodipodi:nodetypes="cccccc"
         inkscape:connector-curvature="0"
         id="path884"
         d="m -551.68827,-33.873998 5.51748,8.00034 c 2.35288,-4.69029 5.22927,-6.58856 8.00032,-9.04866 -4.47406,0.0995 -4.06352,-4.37043 -4.13809,-8.38656 -0.86501,0.0582 -1.80795,0.23755 -3.97258,2.31734 -1.71341,3.35109 -3.54814,5.36775 -5.40713,7.11754 z"
         style="fill:#ffffff;fill-opacity:1;stroke:none;stroke-width:0.26458332px;stroke-linecap:butt;stroke-linejoin:miter;stroke-opacity:1" />
      <path
         sodipodi:nodetypes="ccccccc"
         inkscape:connector-curvature="0"
         id="path886"
         d="m -535.19102,-37.405178 c 4.08398,-0.0696 9.63869,-1.3311 11.03494,-2.20699 -0.0967,-2.38637 -1.60367,-5.2428 -2.48287,-7.88999 l 1.15868,-3.9174 c -3.18266,-2.34807 -7.07586,-4.29995 -12.52466,-1.54489 l -5.51748,4.63467 c -1.17351,9.84398 7.31309,10.57129 8.33139,10.9246 z"
         style="fill:#ffffff;fill-opacity:1;stroke:none;stroke-width:0.26458332px;stroke-linecap:butt;stroke-linejoin:miter;stroke-opacity:1" />
      <path
         sodipodi:nodetypes="cccccccccccccccc"
         inkscape:connector-curvature="0"
         id="path890"
         d="m -540.15675,-46.674538 c -4.63434,5.42754 -1.23996,13.14217 2.75873,16.6076 4.45846,0.23381 4.46765,-0.0268 6.56579,-0.0552 4.95429,-3.66147 3.45585,-5.88899 3.42085,-8.44173 -4.66057,-1.13338 -11.92606,2.68257 -12.63502,-5.95887 0.34316,-3.71585 0.2312,-7.76126 4.68985,-8.49692 4.25462,0.04 7.93999,0.58229 9.71076,2.81392 2.11668,-5.1999 -4.02776,-10.9246 -4.02776,-10.9246 -3.55026,-0.43626 -9.93598,1.90565 -14.4006,2.15181 -0.35318,0.19395 -0.62151,1.83049 -0.82764,4.52433 -1.53355,1.14028 -3.45499,3.16335 -2.48286,5.0209 0.95432,1.06274 1.63179,4.59217 1.10351,8.44174 1.25595,-0.59045 2.31272,-0.64978 3.97258,-2.31734 -0.9281,-0.9613 -1.57815,-2.06162 -1.04833,-3.75188 0.82763,-1.0185 1.65525,-0.0573 2.48288,0.93797 z"
         style="fill:#004f91;fill-opacity:1;stroke:none;stroke-width:0.26458332px;stroke-linecap:butt;stroke-linejoin:miter;stroke-opacity:1" />
    </g>
    <rect
       y="233.99835"
       x="120.03583"
       height="35.747856"
       width="18.152937"
       id="rect911"
       style="fill:#012957;fill-opacity:1;stroke:none;stroke-width:0.72354716;stroke-miterlimit:4;stroke-dasharray:none;stroke-opacity:1" />
    <rect
       style="fill:#012957;fill-opacity:1;stroke:none;stroke-width:0.92921716;stroke-miterlimit:4;stroke-dasharray:none;stroke-opacity:1"
       id="rect920"
       width="18.152937"
       height="58.959084"
       x="156.03276"
       y="210.78711" />
    <rect
       y="193.45667"
       x="193.19054"
       height="76.289536"
       width="18.152937"
       id="rect922"
       style="fill:#012957;fill-opacity:1;stroke:none;stroke-width:1.05699849;stroke-miterlimit:4;stroke-dasharray:none;stroke-opacity:1" />
    <rect
       style="fill:#012957;fill-opacity:1;stroke:none;stroke-width:0.93584138;stroke-miterlimit:4;stroke-dasharray:none;stroke-opacity:1"
       id="rect924"
       width="18.152937"
       height="59.802704"
       x="229.57404"
       y="209.9435" />
    <rect
       y="188.68118"
       x="265.95773"
       height="81.065018"
       width="18.152937"
       id="rect926"
       style="fill:#012957;fill-opacity:1;stroke:none;stroke-width:1.08957875;stroke-miterlimit:4;stroke-dasharray:none;stroke-opacity:1" />
    <rect
       style="fill:#012957;fill-opacity:1;stroke:none;stroke-width:1.21927786;stroke-miterlimit:4;stroke-dasharray:none;stroke-opacity:1"
       id="rect928"
       width="18.152937"
       height="101.513"
       x="302.72934"
       y="168.23318" />
    <rect
       y="153.86433"
       x="339.11389"
       height="115.88186"
       width="18.152937"
       id="rect930"
       style="fill:#012957;fill-opacity:1;stroke:none;stroke-width:1.30271554;stroke-miterlimit:4;stroke-dasharray:none;stroke-opacity:1" />
    <rect
       style="fill:#012957;fill-opacity:1;stroke:none;stroke-width:1.22259235;stroke-miterlimit:4;stroke-dasharray:none;stroke-opacity:1"
       id="rect932"
       width="18.152937"
       height="102.06564"
       x="375.8855"
       y="167.68054" />
  </g>
</svg>
